REM DIRINDEX 1\2\4\8,1\2\4\9,1\2\4\10,1\2\5\11,1\2\5\12,1\2\5\13,1\2\5\14,1\2\5\15,1\3\6\16,1\3\6\17,1\3\6\18,1\3\7\19,1\3\7\20,1\3\7\21,1\3\7\22,1\3\7\23
REM DIRNAME "folder01","folder02","folder03","folder04","folder05","folder06","folder07","folder08","folder09","folder10","folder11","folder12","folder13","folder14","folder15","folder16","folder17","folder18","folder19","folder20","folder21","folder22","folder23"
TITLE ""
FILE "LR_black_phrase_E_C09.mp3" MP3
  TRACK 01 AUDIO
    TITLE "0:"
    INDEX 01 00:00:00
  TRACK 02 AUDIO
    TITLE "16:cjc171_10281"
    INDEX 01 00:00:14
  TRACK 03 AUDIO
    TITLE "0:"
    INDEX 01 00:01:49
  TRACK 04 AUDIO
    TITLE "17:cjc171_10282"
    INDEX 01 00:02:01
  TRACK 05 AUDIO
    TITLE "0:"
    INDEX 01 00:04:06
  TRACK 06 AUDIO
    TITLE "18:cjc171_10283"
    INDEX 01 00:04:63
  TRACK 07 AUDIO
    TITLE "0:"
    INDEX 01 00:06:68
  TRACK 08 AUDIO
    TITLE "16:cjc171_10284"
    INDEX 01 00:07:73
  TRACK 09 AUDIO
    TITLE "0:"
    INDEX 01 00:09:23
  TRACK 10 AUDIO
    TITLE "17:cjc171_10285"
    INDEX 01 00:09:52
  TRACK 11 AUDIO
    TITLE "0:"
    INDEX 01 00:11:55
  TRACK 12 AUDIO
    TITLE "18:cjc171_10286"
    INDEX 01 00:12:35
  TRACK 13 AUDIO
    TITLE "0:"
    INDEX 01 00:14:38
  TRACK 14 AUDIO
    TITLE "16:cjc171_10287"
    INDEX 01 00:15:37
  TRACK 15 AUDIO
    TITLE "0:"
    INDEX 01 00:17:11
  TRACK 16 AUDIO
    TITLE "17:cjc171_10288"
    INDEX 01 00:17:28
  TRACK 17 AUDIO
    TITLE "0:"
    INDEX 01 00:20:07
  TRACK 18 AUDIO
    TITLE "18:cjc171_10289"
    INDEX 01 00:20:58
  TRACK 19 AUDIO
    TITLE "0:"
    INDEX 01 00:23:35
  TRACK 20 AUDIO
    TITLE "16:cjc171_10290"
    INDEX 01 00:24:34
  TRACK 21 AUDIO
    TITLE "0:"
    INDEX 01 00:25:55
  TRACK 22 AUDIO
    TITLE "17:cjc171_10291"
    INDEX 01 00:26:02
  TRACK 23 AUDIO
    TITLE "0:"
    INDEX 01 00:28:60
  TRACK 24 AUDIO
    TITLE "18:cjc171_10292"
    INDEX 01 00:29:34
  TRACK 25 AUDIO
    TITLE "0:"
    INDEX 01 00:32:22
  TRACK 26 AUDIO
    TITLE "16:cjc171_10293"
    INDEX 01 00:33:23
  TRACK 27 AUDIO
    TITLE "0:"
    INDEX 01 00:34:43
  TRACK 28 AUDIO
    TITLE "17:cjc171_10294"
    INDEX 01 00:34:72
  TRACK 29 AUDIO
    TITLE "0:"
    INDEX 01 00:37:31
  TRACK 30 AUDIO
    TITLE "18:cjc171_10295"
    INDEX 01 00:38:11
  TRACK 31 AUDIO
    TITLE "0:"
    INDEX 01 00:40:43
  TRACK 32 AUDIO
    TITLE "16:cjc171_10296"
    INDEX 01 00:41:46
  TRACK 33 AUDIO
    TITLE "0:"
    INDEX 01 00:42:60
  TRACK 34 AUDIO
    TITLE "17:cjc171_10297"
    INDEX 01 00:43:18
  TRACK 35 AUDIO
    TITLE "0:"
    INDEX 01 00:45:29
  TRACK 36 AUDIO
    TITLE "18:cjc171_10298"
    INDEX 01 00:46:06
  TRACK 37 AUDIO
    TITLE "0:"
    INDEX 01 00:48:17
  TRACK 38 AUDIO
    TITLE "16:cjc171_10299"
    INDEX 01 00:49:17
  TRACK 39 AUDIO
    TITLE "0:"
    INDEX 01 00:50:42
  TRACK 40 AUDIO
    TITLE "17:cjc171_10300"
    INDEX 01 00:50:63
  TRACK 41 AUDIO
    TITLE "0:"
    INDEX 01 00:53:44
  TRACK 42 AUDIO
    TITLE "18:cjc171_10301"
    INDEX 01 00:54:18
  TRACK 43 AUDIO
    TITLE "0:"
    INDEX 01 00:56:72
  TRACK 44 AUDIO
    TITLE "16:cjc171_10302"
    INDEX 01 00:57:67
  TRACK 45 AUDIO
    TITLE "0:"
    INDEX 01 00:59:17
  TRACK 46 AUDIO
    TITLE "17:cjc171_10303"
    INDEX 01 00:59:39
  TRACK 47 AUDIO
    TITLE "0:"
    INDEX 01 01:01:43
  TRACK 48 AUDIO
    TITLE "18:cjc171_10304"
    INDEX 01 01:02:15
  TRACK 49 AUDIO
    TITLE "0:"
    INDEX 01 01:04:18
  TRACK 50 AUDIO
    TITLE "16:cjc171_10305"
    INDEX 01 01:05:22
  TRACK 51 AUDIO
    TITLE "0:"
    INDEX 01 01:06:27
  TRACK 52 AUDIO
    TITLE "17:cjc171_10306"
    INDEX 01 01:06:62
  TRACK 53 AUDIO
    TITLE "0:"
    INDEX 01 01:08:45
  TRACK 54 AUDIO
    TITLE "18:cjc171_10307"
    INDEX 01 01:09:19
  TRACK 55 AUDIO
    TITLE "0:"
    INDEX 01 01:10:74
  TRACK 56 AUDIO
    TITLE "16:cjc171_10308"
    INDEX 01 01:12:02
  TRACK 57 AUDIO
    TITLE "0:"
    INDEX 01 01:13:39
  TRACK 58 AUDIO
    TITLE "17:cjc171_10309"
    INDEX 01 01:13:66
  TRACK 59 AUDIO
    TITLE "0:"
    INDEX 01 01:16:08
  TRACK 60 AUDIO
    TITLE "18:cjc171_10310"
    INDEX 01 01:16:62
  TRACK 61 AUDIO
    TITLE "0:"
    INDEX 01 01:19:02
  TRACK 62 AUDIO
    TITLE "16:cjc171_10311"
    INDEX 01 01:20:01
  TRACK 63 AUDIO
    TITLE "0:"
    INDEX 01 01:20:74
  TRACK 64 AUDIO
    TITLE "17:cjc171_10312"
    INDEX 01 01:21:19
  TRACK 65 AUDIO
    TITLE "0:"
    INDEX 01 01:23:31
  TRACK 66 AUDIO
    TITLE "18:cjc171_10313"
    INDEX 01 01:23:74
  TRACK 67 AUDIO
    TITLE "0:"
    INDEX 01 01:26:14
  TRACK 68 AUDIO
    TITLE "16:cjc171_10314"
    INDEX 01 01:27:07
  TRACK 69 AUDIO
    TITLE "0:"
    INDEX 01 01:28:17
  TRACK 70 AUDIO
    TITLE "17:cjc171_10315"
    INDEX 01 01:28:36
  TRACK 71 AUDIO
    TITLE "0:"
    INDEX 01 01:30:33
  TRACK 72 AUDIO
    TITLE "18:cjc171_10316"
    INDEX 01 01:31:05
  TRACK 73 AUDIO
    TITLE "0:"
    INDEX 01 01:33:00
  TRACK 74 AUDIO
    TITLE "16:cjc171_10317"
    INDEX 01 01:34:02
  TRACK 75 AUDIO
    TITLE "0:"
    INDEX 01 01:35:19
  TRACK 76 AUDIO
    TITLE "17:cjc171_10318"
    INDEX 01 01:35:46
  TRACK 77 AUDIO
    TITLE "0:"
    INDEX 01 01:37:51
  TRACK 78 AUDIO
    TITLE "18:cjc171_10319"
    INDEX 01 01:38:33
  TRACK 79 AUDIO
    TITLE "0:"
    INDEX 01 01:40:36
  TRACK 80 AUDIO
    TITLE "16:cjc171_10320"
    INDEX 01 01:41:43
  TRACK 81 AUDIO
    TITLE "0:"
    INDEX 01 01:42:58
  TRACK 82 AUDIO
    TITLE "17:cjc171_10321"
    INDEX 01 01:43:12
  TRACK 83 AUDIO
    TITLE "0:"
    INDEX 01 01:45:19
  TRACK 84 AUDIO
    TITLE "18:cjc171_10322"
    INDEX 01 01:45:74
  TRACK 85 AUDIO
    TITLE "0:"
    INDEX 01 01:48:08
  TRACK 86 AUDIO
    TITLE "16:cjc171_10323"
    INDEX 01 01:49:07
  TRACK 87 AUDIO
    TITLE "0:"
    INDEX 01 01:50:06
  TRACK 88 AUDIO
    TITLE "17:cjc171_10324"
    INDEX 01 01:50:28
  TRACK 89 AUDIO
    TITLE "0:"
    INDEX 01 01:52:15
  TRACK 90 AUDIO
    TITLE "18:cjc171_10325"
    INDEX 01 01:52:62
  TRACK 91 AUDIO
    TITLE "0:"
    INDEX 01 01:54:51
  TRACK 92 AUDIO
    TITLE "16:cjc171_10326"
    INDEX 01 01:55:47
  TRACK 93 AUDIO
    TITLE "0:"
    INDEX 01 01:56:66
  TRACK 94 AUDIO
    TITLE "17:cjc171_10327"
    INDEX 01 01:57:24
  TRACK 95 AUDIO
    TITLE "0:"
    INDEX 01 01:59:25
  TRACK 96 AUDIO
    TITLE "18:cjc171_10328"
    INDEX 01 02:00:03
  TRACK 97 AUDIO
    TITLE "0:"
    INDEX 01 02:02:06
  TRACK 98 AUDIO
    TITLE "16:cjc171_10329"
    INDEX 01 02:03:05
  TRACK 99 AUDIO
    TITLE "0:"
    INDEX 01 02:04:28
  TRACK 100 AUDIO
    TITLE "17:cjc171_10330"
    INDEX 01 02:04:58
  TRACK 101 AUDIO
    TITLE "0:"
    INDEX 01 02:07:15
  TRACK 102 AUDIO
    TITLE "18:cjc171_10331"
    INDEX 01 02:07:70
  TRACK 103 AUDIO
    TITLE "0:"
    INDEX 01 02:10:27
  TRACK 104 AUDIO
    TITLE "16:cjc171_10332"
    INDEX 01 02:11:32
  TRACK 105 AUDIO
    TITLE "0:"
    INDEX 01 02:12:49
  TRACK 106 AUDIO
    TITLE "17:cjc171_10333"
    INDEX 01 02:13:04
  TRACK 107 AUDIO
    TITLE "0:"
    INDEX 01 02:15:52
  TRACK 108 AUDIO
    TITLE "18:cjc171_10334"
    INDEX 01 02:16:29
  TRACK 109 AUDIO
    TITLE "0:"
    INDEX 01 02:19:00
  TRACK 110 AUDIO
    TITLE "16:cjc171_10335"
    INDEX 01 02:20:04
  TRACK 111 AUDIO
    TITLE "0:"
    INDEX 01 02:21:19
  TRACK 112 AUDIO
    TITLE "17:cjc171_10336"
    INDEX 01 02:21:40
  TRACK 113 AUDIO
    TITLE "0:"
    INDEX 01 02:23:61
  TRACK 114 AUDIO
    TITLE "18:cjc171_10337"
    INDEX 01 02:24:29
  TRACK 115 AUDIO
    TITLE "0:"
    INDEX 01 02:26:49
  TRACK 116 AUDIO
    TITLE "16:cjc171_10338"
    INDEX 01 02:27:45
  TRACK 117 AUDIO
    TITLE "0:"
    INDEX 01 02:28:50
  TRACK 118 AUDIO
    TITLE "17:cjc171_10339"
    INDEX 01 02:29:03
  TRACK 119 AUDIO
    TITLE "0:"
    INDEX 01 02:31:19
  TRACK 120 AUDIO
    TITLE "18:cjc171_10340"
    INDEX 01 02:31:74
  TRACK 121 AUDIO
    TITLE "0:"
    INDEX 01 02:34:18
